<svg width="88" height="62" viewBox="0 0 88 62" fill="none" xmlns="http://www.w3.org/2000/svg">
<g id="Warstwa_1" clip-path="url(#clip0_23_823)">
<path id="Vector" d="M47.011 45.2535C43.4928 42.8621 40.0367 40.879 37.0065 38.3812C29.6594 32.3163 25.0942 24.6632 24.8945 14.8716C24.7836 9.36582 26.6292 4.77394 31.616 1.8724C36.8024 -1.14892 41.8956 -0.212795 46.7847 2.54233C53.0004 6.04725 56.1637 11.8991 58.1868 18.4165C59.9393 24.0687 60.6624 29.8585 59.7307 35.7946C59.2649 38.7538 59.8283 39.4193 62.8186 39.3661C69.4513 39.2463 75.2899 37.3696 79.0388 31.3802C79.9217 29.9649 80.9466 29.6411 82.4373 30.3421C83.4133 30.8035 84.447 31.1495 85.4719 31.4867C88.4844 32.4761 88.6175 32.7822 86.8561 35.5684C80.1968 46.1142 70.0991 48.8072 58.4885 47.8444C56.9756 47.7202 55.9774 47.8089 55.1167 49.2375C48.8344 59.6502 39.2114 62.5163 27.8538 60.8348C17.4987 59.3042 8.91833 54.1488 1.39386 47.037C-0.340853 45.3954 -0.598176 44.1887 1.4471 42.4939C5.7994 38.8869 5.67074 38.8514 9.86777 42.5205C15.9193 47.8089 22.8226 51.3671 30.9106 52.2411C36.4696 52.8445 41.5229 51.7353 45.4271 47.3431C45.995 46.7042 46.4697 45.9722 47.011 45.2535ZM49.7528 36.4291C50.1211 36.1895 50.4893 35.9455 50.8531 35.7059C50.8531 32.6757 51.1592 29.61 50.791 26.6286C49.9702 20.0137 47.9471 13.869 41.8512 10.0801C37.7562 7.53794 33.9674 9.5211 33.608 14.3259C33.5282 15.3907 33.608 16.5043 33.8387 17.5469C34.9967 22.8265 37.5743 27.3651 41.6738 30.8434C44.1583 32.9508 47.0421 34.579 49.7484 36.4246L49.7528 36.4291Z" fill="#E4D7CE"/>
</g>
<defs>
<clipPath id="clip0_23_823">
<rect width="61.2827" height="88" fill="white" transform="matrix(0 -1 1 0 0 61.2827)"/>
</clipPath>
</defs>
</svg>
