<svg width="88" height="62" viewBox="0 0 88 62" fill="none" xmlns="http://www.w3.org/2000/svg">
<g id="Warstwa_1" clip-path="url(#clip0_23_880)">
<path id="Vector" d="M47.011 45.2539C43.4928 42.8626 40.0367 40.8795 37.0065 38.3817C29.6594 32.3168 25.0942 24.6637 24.8945 14.8721C24.7836 9.36631 26.6292 4.77443 31.616 1.87289C36.8024 -1.14843 41.8956 -0.212307 46.7847 2.54282C53.0004 6.04773 56.1637 11.8996 58.1868 18.417C59.9393 24.0692 60.6624 29.859 59.7307 35.7951C59.2649 38.7543 59.8283 39.4198 62.8186 39.3666C69.4513 39.2468 75.2899 37.3701 79.0388 31.3807C79.9217 29.9654 80.9466 29.6416 82.4373 30.3425C83.4133 30.804 84.447 31.15 85.4719 31.4872C88.4844 32.4765 88.6175 32.7827 86.8561 35.5689C80.1968 46.1146 70.0991 48.8077 58.4885 47.8449C56.9756 47.7207 55.9774 47.8094 55.1167 49.238C48.8344 59.6507 39.2114 62.5168 27.8538 60.8353C17.4987 59.3047 8.91833 54.1493 1.39386 47.0375C-0.340853 45.3959 -0.598176 44.1892 1.4471 42.4944C5.7994 38.8874 5.67074 38.8519 9.86777 42.521C15.9193 47.8094 22.8226 51.3676 30.9106 52.2416C36.4696 52.845 41.5229 51.7358 45.4271 47.3436C45.995 46.7047 46.4697 45.9727 47.011 45.2539ZM49.7528 36.4296C50.1211 36.19 50.4893 35.946 50.8531 35.7064C50.8531 32.6762 51.1592 29.6105 50.791 26.6291C49.9702 20.0141 47.9471 13.8695 41.8512 10.0806C37.7562 7.53843 33.9674 9.52159 33.608 14.3264C33.5282 15.3912 33.608 16.5048 33.8387 17.5474C34.9967 22.8269 37.5743 27.3656 41.6738 30.8439C44.1583 32.9513 47.0421 34.5795 49.7484 36.4251L49.7528 36.4296Z" fill="#D6C0B3"/>
</g>
<defs>
<clipPath id="clip0_23_880">
<rect width="61.2827" height="88" fill="white" transform="matrix(0 -1 1 0 0 61.2832)"/>
</clipPath>
</defs>
</svg>
