<svg width="24" height="25" viewBox="0 0 24 25" fill="none" xmlns="http://www.w3.org/2000/svg">
<g id="32X32/hand">
<path id="Vector" d="M12.9375 6.98242L9.9375 6.98242M12.9375 6.98242V5.48242C12.9375 4.65399 12.2659 3.98242 11.4375 3.98242H6.9375C4.5625 3.98242 2.85938 6.60742 0.9375 6.60742V17.8574C0.9375 17.8574 6.28125 20.1074 12.1875 20.1074C13.1719 20.1074 13.6875 19.4746 13.6875 18.6074C13.6875 17.1543 12.1875 17.1074 12.1875 17.1074H13.125C14.057 17.1074 14.8125 16.3519 14.8125 15.4199C14.8125 14.4879 14.057 13.7324 13.125 13.7324M12.9375 6.98242H21.375C22.307 6.98242 23.0625 7.73794 23.0625 8.66992C23.0625 9.6019 22.307 10.3574 21.375 10.3574H12.9375M12.5625 10.3574H13.875C14.807 10.3574 15.5625 11.1129 15.5625 12.0449C15.5625 12.9769 14.807 13.7324 13.875 13.7324H12.5625" stroke="#D6C0B3" stroke-width="1.5" stroke-linecap="round" stroke-linejoin="round"/>
</g>
</svg>
