<svg width="81" height="80" viewBox="0 0 81 80" fill="none" xmlns="http://www.w3.org/2000/svg">
<g id="yoga 1">
<g id="Group">
<path id="Vector" d="M41.2225 19.5248C45.3273 19.5248 48.6549 16.1972 48.6549 12.0923C48.6549 7.98753 45.3273 4.65991 41.2225 4.65991C37.1177 4.65991 33.79 7.98753 33.79 12.0923C33.79 16.1972 37.1177 19.5248 41.2225 19.5248Z" stroke="#42502B" stroke-width="2.25225" stroke-linecap="round" stroke-linejoin="round"/>
<path id="Vector_2" d="M4.06055 74.0293H78.3849" stroke="#42502B" stroke-width="2.25225" stroke-linecap="round" stroke-linejoin="round"/>
<path id="Vector_3" d="M26.3575 64.0203L22.4097 62.7568C21.3979 62.433 20.5151 61.7962 19.8888 60.9381C19.2624 60.08 18.925 59.0451 18.9251 57.9827C18.9254 56.6536 19.4536 55.3789 20.3934 54.4391C21.3333 53.4992 22.6079 52.9711 23.937 52.9708H31.3125V35.6284L23.8714 42.1219C23.2573 42.6677 22.4796 42.9947 21.66 43.0516C20.8404 43.1085 20.025 42.8922 19.3413 42.4365L11.5546 37.245C11.195 37.0055 10.8861 36.6974 10.6456 36.3385C10.405 35.9795 10.2376 35.5767 10.1528 35.153C10.068 34.7293 10.0676 34.2931 10.1514 33.8692C10.2353 33.4453 10.4019 33.0422 10.6417 32.6827C11.086 32.0165 11.7579 31.5352 12.5316 31.3288C13.3053 31.1225 14.1276 31.2052 14.8447 31.5616L21.0768 34.6585L30.0824 26.655C30.763 26.0511 31.6414 25.7179 32.5512 25.7185H49.8936C50.8037 25.7186 51.6822 26.0527 52.3624 26.6575L61.368 34.661L67.6001 31.5641C68.3172 31.2077 69.1395 31.125 69.9132 31.3313C70.6869 31.5377 71.3588 32.019 71.8032 32.6852C72.0429 33.0446 72.2095 33.4478 72.2934 33.8717C72.3773 34.2956 72.3768 34.7318 72.292 35.1555C72.2072 35.5792 72.0398 35.982 71.7993 36.3409C71.5587 36.6999 71.2498 37.0079 70.8902 37.2474L63.1035 42.4415C62.4198 42.8972 61.6044 43.1135 60.7848 43.0566C59.9652 42.9996 59.1875 42.6727 58.5734 42.1268L51.1323 35.6284V52.9708H58.6279C59.9253 52.9708 61.1696 53.4861 62.0869 54.4035C63.0043 55.3209 63.5197 56.5652 63.5197 57.8625C63.5199 58.9449 63.161 59.9968 62.4993 60.8533C61.8375 61.7099 60.9103 62.3227 59.863 62.5958L38.7635 68.1007C37.7507 68.3649 36.6753 68.2342 35.7552 67.7351C34.8352 67.236 34.1393 66.4058 33.8086 65.4126C33.471 64.3998 33.5392 63.2956 33.9989 62.332C34.4586 61.3685 35.274 60.6207 36.2736 60.2459L42.4611 57.9257" stroke="#42502B" stroke-width="2.25225" stroke-linecap="round" stroke-linejoin="round"/>
</g>
</g>
</svg>
