<svg width="81" height="81" viewBox="0 0 81 81" fill="none" xmlns="http://www.w3.org/2000/svg">
<g id="users-heart 1">
<g id="Vector">
<path d="M53.317 7.84493C49.7668 4.19872 43.8414 4.79476 41.0539 9.10699C38.2639 4.78993 32.3373 4.20234 28.7908 7.84372C25.6821 11.0351 25.6821 16.2112 28.7908 19.4025L41.0527 31.9954L53.317 19.4037C56.4256 16.2112 56.4256 11.0363 53.317 7.84493Z" stroke="#42502B" stroke-width="2.25225" stroke-linecap="round" stroke-linejoin="round"/>
<path d="M62.9458 51.3002C66.976 51.3002 70.2431 48.0591 70.2431 44.0609C70.2431 40.0627 66.976 36.8216 62.9458 36.8216C58.9156 36.8216 55.6485 40.0627 55.6485 44.0609C55.6485 48.0591 58.9156 51.3002 62.9458 51.3002Z" stroke="#42502B" stroke-width="2.25225" stroke-linecap="round" stroke-linejoin="round"/>
<path d="M19.162 51.3002C23.1922 51.3002 26.4593 48.0591 26.4593 44.0609C26.4593 40.0627 23.1922 36.8216 19.162 36.8216C15.1318 36.8216 11.8647 40.0627 11.8647 44.0609C11.8647 48.0591 15.1318 51.3002 19.162 51.3002Z" stroke="#42502B" stroke-width="2.25225" stroke-linecap="round" stroke-linejoin="round"/>
<path d="M33.7566 73.0182V65.8211C33.7566 64.1078 32.8505 62.5321 31.3643 61.6597C28.9987 60.271 24.8977 58.5396 19.162 58.5396C13.3521 58.5396 9.27779 60.2601 6.93657 61.6465C5.46252 62.52 4.56738 64.0909 4.56738 65.7946V73.0182H33.7566Z" stroke="#42502B" stroke-width="2.25225" stroke-linecap="round" stroke-linejoin="round"/>
<path d="M77.5404 73.0182V65.8211C77.5404 64.1078 76.6343 62.5321 75.1481 61.6597C72.7825 60.271 68.6814 58.5396 62.9458 58.5396C57.1359 58.5396 53.0616 60.2601 50.7204 61.6465C49.2463 62.52 48.3512 64.0909 48.3512 65.7946V73.0182H77.5404Z" stroke="#42502B" stroke-width="2.25225" stroke-linecap="round" stroke-linejoin="round"/>
</g>
</g>
</svg>
