<svg width="81" height="80" viewBox="0 0 81 80" fill="none" xmlns="http://www.w3.org/2000/svg">
<g id="spa-rocks 1">
<g id="Group">
<path id="Vector" d="M77.1463 66.7499C77.1463 72.2226 65.657 76.8853 40.6729 76.8853C18.0585 76.8853 11.4932 71.8176 11.4932 66.9753C11.4932 61.6822 18.0585 57.0654 40.6729 57.0654C65.657 57.0654 77.1463 61.2771 77.1463 66.7499Z" stroke="#42502B" stroke-width="2.25225" stroke-linecap="round" stroke-linejoin="round"/>
<path id="Vector_2" d="M5.2998 47.7748C5.2998 52.4201 11.3882 57.0653 31.3133 57.0653C53.6106 57.0653 65.998 52.4201 65.998 47.7748C65.998 43.1295 53.6106 38.4843 31.3133 38.4843C11.4935 38.4843 5.2998 43.1295 5.2998 47.7748Z" stroke="#42502B" stroke-width="2.25225" stroke-linecap="round" stroke-linejoin="round"/>
<path id="Vector_3" d="M68.4759 29.8131C68.4759 35.8161 56.0885 38.4843 41.2237 38.4843C28.8363 38.4843 22.6426 34.6021 22.6426 29.8131C22.6426 25.0242 27.5975 21.142 41.2237 21.142C56.0885 21.142 68.4759 23.8102 68.4759 29.8131Z" stroke="#42502B" stroke-width="2.25225" stroke-linecap="round" stroke-linejoin="round"/>
<path id="Vector_4" d="M38.7458 21.1419C45.5872 21.1419 51.1332 17.537 51.1332 13.0901C51.1332 8.64324 45.5872 5.03833 38.7458 5.03833C31.9044 5.03833 26.3584 8.64324 26.3584 13.0901C26.3584 17.537 31.9044 21.1419 38.7458 21.1419Z" stroke="#42502B" stroke-width="2.25225" stroke-linecap="round" stroke-linejoin="round"/>
</g>
</g>
</svg>
