<svg width="81" height="80" viewBox="0 0 81 80" fill="none" xmlns="http://www.w3.org/2000/svg">
<g id="logic 1">
<path id="Vector" d="M17.6873 75.6194V53.14C13.9967 49.8322 11.1919 45.6537 9.52848 40.9851C7.86503 36.3165 7.39567 31.3059 8.16315 26.4096C8.93063 21.5133 10.9106 16.8867 13.9227 12.9509C16.9349 9.01517 20.8835 5.89531 25.4093 3.87533C29.9351 1.85536 34.8943 0.999423 39.8353 1.38545C44.7764 1.77148 49.5425 3.3872 53.6996 6.08554C57.8568 8.78388 61.2731 12.4791 63.6374 16.8349C66.0018 21.1907 67.2392 26.0687 67.2369 31.0248V33.5023L73.4306 47.1284L67.2369 50.8446V60.7545C67.2369 62.7257 66.4538 64.6162 65.06 66.0101C63.6661 67.4039 61.7757 68.187 59.8045 68.187H47.4171V75.6194M33.791 31.0248C33.791 33.0772 35.4548 34.741 37.5072 34.741C39.5596 34.741 41.2234 33.0772 41.2234 31.0248C41.2234 28.9724 39.5596 27.3086 37.5072 27.3086C35.4548 27.3086 33.791 28.9724 33.791 31.0248ZM26.3585 31.0248C26.3613 30.4886 26.4027 29.9534 26.4824 29.4231L22.319 25.1185L24.7965 20.8275L30.6012 22.2806C31.4456 21.6116 32.3828 21.0692 33.3834 20.6702L35.0297 14.9212H39.9846L41.6272 20.6727C42.6278 21.0716 43.565 21.6141 44.4094 22.283L50.2141 20.83L52.6916 25.121L48.5319 29.4231C48.7016 30.4842 48.7016 31.5655 48.5319 32.6265L52.6953 36.9311L50.2179 41.2221L44.4131 39.7691C43.5688 40.438 42.6315 40.9805 41.6309 41.3794L39.9846 47.1284H35.0297L33.3871 41.377C32.3865 40.978 31.4493 40.4355 30.6049 39.7666L24.8002 41.2196L22.3227 36.9286L26.4824 32.6265C26.4027 32.0963 26.3613 31.561 26.3585 31.0248Z" stroke="#42502B" stroke-width="2.25225" stroke-linecap="round" stroke-linejoin="round"/>
</g>
</svg>
