<svg width="88" height="62" viewBox="0 0 88 62" fill="none" xmlns="http://www.w3.org/2000/svg">
<g id="Warstwa_1" clip-path="url(#clip0_23_890)">
<path id="Vector" d="M47.011 45.9707C43.4928 43.5794 40.0367 41.5963 37.0065 39.0985C29.6594 33.0336 25.0942 25.3805 24.8945 15.5889C24.7836 10.0831 26.6292 5.49122 31.616 2.58969C36.8024 -0.431637 41.8956 0.50449 46.7847 3.25962C53.0004 6.76453 56.1637 12.6164 58.1868 19.1338C59.9393 24.786 60.6624 30.5757 59.7307 36.5119C59.2649 39.4711 59.8283 40.1366 62.8186 40.0834C69.4513 39.9636 75.2899 38.0869 79.0388 32.0975C79.9217 30.6822 80.9466 30.3584 82.4373 31.0593C83.4133 31.5207 84.447 31.8668 85.4719 32.204C88.4844 33.1933 88.6175 33.4995 86.8561 36.2857C80.1968 46.8314 70.0991 49.5245 58.4885 48.5617C56.9756 48.4375 55.9774 48.5262 55.1167 49.9548C48.8344 60.3675 39.2114 63.2336 27.8538 61.5521C17.4987 60.0215 8.91833 54.8661 1.39386 47.7543C-0.340853 46.1127 -0.598176 44.906 1.4471 43.2112C5.7994 39.6042 5.67074 39.5687 9.86777 43.2378C15.9193 48.5262 22.8226 52.0844 30.9106 52.9584C36.4696 53.5618 41.5229 52.4526 45.4271 48.0604C45.995 47.4215 46.4697 46.6895 47.011 45.9707ZM49.7528 37.1464C50.1211 36.9068 50.4893 36.6628 50.8531 36.4232C50.8531 33.393 51.1592 30.3273 50.791 27.3459C49.9702 20.7309 47.9471 14.5863 41.8512 10.7974C37.7562 8.25522 33.9674 10.2384 33.608 15.0432C33.5282 16.108 33.608 17.2216 33.8387 18.2642C34.9967 23.5437 37.5743 28.0824 41.6738 31.5607C44.1583 33.6681 47.0421 35.2963 49.7484 37.1419L49.7528 37.1464Z" fill="#D6C0B3"/>
</g>
<defs>
<clipPath id="clip0_23_890">
<rect width="61.2827" height="88" fill="white" transform="matrix(0 -1 1 0 0 62)"/>
</clipPath>
</defs>
</svg>
